<mxfile host="app.diagrams.net" modified="2024-04-18T11:37:43.458Z" agent="Mozilla/5.0 (Macintosh; Intel Mac OS X 10_15_7) AppleWebKit/537.36 (KHTML, like Gecko) Chrome/123.0.0.0 Safari/537.36" version="24.2.5" etag="a-28n6TS3tuHRiwv1zvA" type="github">
  <diagram name="Page-1" id="Kzwyqc2UsPuV3tZ2kpKG">
    <mxGraphModel>
      <root>
        <mxCell id="0" />
        <mxCell id="1" parent="0" />
      </root>
    </mxGraphModel>
  </diagram>
</mxfile>
